<svg xmlns="http://www.w3.org/2000/svg" width="1145.046" height="300.001" viewBox="0 0 1145.046 300.001"><path d="M299.833 143.323c.106 2.195.169 4.376.183 6.55v.119c0 69.396-47.116 127.79-111.118 144.921a151.574 151.574 0 0 1-32.131 4.93c-3.269.148-6.524.19-9.758.134C71.095 298.49 9.008 240.608.898 166.492a145.285 145.285 0 0 1-.715-9.656A155.642 155.642 0 0 1 0 150.307v-.315C0 67.166 67.152 0 150.004 0c70.66 0 129.891 48.843 145.81 114.585a150.424 150.424 0 0 1 4.019 28.738Zm-70.652-68.604c-8.777-2.426-15.266-4.509-17.181-8.541-.905-1.908-.351-3.829.898-4.727 1.354-.989 3.178-.659 5.304.379 3.143 1.522 6.987 3.78 9.941 4.144 8.6 1.038 7.029-12.117-8.426-19.754-9.092-4.516-17.988-6.367-30.04-5.919-4.462.183-8.671.021-12.404-.568-5.633-.869-12.536-3.261-17.187-4.228-3.557-.751-5.585-.652-6.434.533-.785 1.122-.533 2.777 1.635 5.519 4.35 5.483 11.204 11.584 7.696 25.855-8.678 35.378 3.206 51.57 15.315 54.228 6.784 1.508 13.034-.084 16.851-4.046 3.627-3.794 5.191-10.211 1.698-15.645-5.346-8.324-7.233-15.561-2.456-18.57 4.364-2.755 10.565-.217 15.28 10.33 7.541 16.9 17.356 21.381 27.171 9.362 8.039-9.846 7.724-24.102-7.661-28.352ZM201.87 167.06c-40.683-24.375-60.859-34.018-77.325-45.771-27.283-19.452-31.597-33.947-32.432-44.031-1.487-18.051 12.172-34.299 26.076-41.957 1.074-.652 2.912-2.152 2.112-4.207-.807-2.076-3.297-1.676-4.23-1.473-31.1 6.599-61.322 33.983-56.629 70.54 1.873 14.48 11.084 38.933 58.782 67.019 16.269 9.572 30.314 16.83 52.364 29.452 29.858 17.069 43.601 39.06 25.108 63.05-1.403 1.676-2.61 3.415-2.105 4.93.569 1.753 2.877 2.055 5.031 1.087 14.192-6.536 25.915-16.346 31.499-25.441 9.829-16.017 14.725-47.426-28.251-73.198Zm-47.586 97.335c-3.606-1.038-9.078-2.735-13.638-4.727-5.753-2.51-10.951-5.266-13.245-7.538-1.502-1.508-1.733-3.212-.533-4.965 6.875-9.881 8.811-13.794 10.733-18.443 4.083-9.846.049-10.799-6.286-8.976-6.889 1.97-12.34 3.983-16.563 5.568-5.921 2.209-9.583 3.562-11.737 2.51-2.245-1.087-2.659-4.986-3.466-11.451-.568-4.6-1.536-9.846-2.771-14.965-2.546-10.259-6.938-8.289-10.565-4.095-4.518 5.483-7.008 12.272-8.882 15.834-1.003 1.907-2.153 2.539-3.556 2.237-3.129-.666-7.261-5.512-11.772-11.269-6.588-8.422-9.527-14.895-12.958-15.295-7.289-.848-4.048 16.389 2.792 30.596 6.672 13.906 17.02 27.595 34.355 38.548 19.776 12.518 49.003 17.062 66.955 14.537 5.669-.799 6.791-6.479 1.137-8.106Z" style="fill-rule:nonzero;fill:#0046ff"/><path d="M355.1 162.472c2.12-.215 4.664-.883 7.678-2.044 3.003-1.168 6.174-2.672 9.519-4.502a164.007 164.007 0 0 0 9.717-5.837c11.053-7.37 20.328-16.372 27.821-27.024 3.148 4.379 7.004 8.497 11.592 12.388a120.993 120.993 0 0 0 14.404 10.553c8.892 5.448 15.804 8.724 20.781 9.81 4.995 1.092 8.149.407 9.514-2.056l8.817-16.564c-6-2.051-11.988-4.56-17.936-7.586-5.924-2.985-11.232-6.545-15.96-10.628-4.687-4.101-8.544-8.84-11.541-14.23-3.02-5.396-4.518-11.424-4.518-18.109V59.42h-35.4c-1.504 0-2.532.628-3.073 1.842-.551 1.231-.203 2.596 1.011 4.083 1.928 2.201 3.113 4.344 3.589 6.458.488 2.108.715 4.885.715 8.294v8.578c0 6.552-1.319 12.563-3.979 18.034-2.666 5.454-6.313 10.431-10.954 14.933-4.652 4.512-9.995 8.566-16.07 12.162-6.064 3.63-12.522 6.731-19.341 9.327l9.409 17.802c.691 1.231 2.073 1.742 4.205 1.539M410.668 219.781c-2.057-1.568-3.085-4.739-3.085-9.525v-37.247h-34.784c-1.521 0-2.532.61-3.061 1.841-.557 1.231-.22 2.579 1.028 4.071 1.911 2.364 3.102 4.49 3.572 6.465.471 1.998.726 4.745.726 8.299v19.655c0 6.255.813 11.465 2.446 15.536 1.643 4.101 4.152 7.371 7.579 9.833 3.415 2.463 7.638 4.159 12.691 5.117 5.041.953 10.971 1.44 17.784 1.44h110.532v-23.127H420.698c-4.658 0-7.986-.796-10.03-2.358M523.031 183.458V56.123h-34.994c-1.504 0-2.561.61-3.177 1.748-.615 1.174-.308 2.509.918 4.014 1.911 2.184 3.235 4.344 3.996 6.528.743 2.19 1.132 5.059 1.132 8.596v106.449h32.125ZM577.682 228.879c1.626 4.117 4.165 7.382 7.556 9.838 3.427 2.451 7.661 4.136 12.697 5.117 5.053.964 10.994 1.452 17.813 1.452h108.906v-23.145H621.277c-4.78 0-8.23-.848-10.332-2.451-2.12-1.638-3.171-4.925-3.171-9.844v-28.663h-34.79c-1.522 0-2.539.639-3.085 1.87-.54 1.208-.203 2.567 1.023 4.078 1.504 1.783 2.602 3.484 3.275 5.128.686 1.626 1.034 3.473 1.034 5.518v15.356c0 6.4.802 11.645 2.451 15.746M592.63 103.729c3.799-4.711 9.345-7.08 16.582-7.08 7.092 0 12.569 2.369 16.466 7.08 3.897 4.716 5.854 10.541 5.854 17.505 0 6.54-1.957 12.174-5.854 16.866-3.897 4.734-9.374 7.069-16.466 7.069-7.237 0-12.783-2.335-16.582-7.069-3.839-4.692-5.726-10.326-5.726-16.866 0-6.964 1.887-12.789 5.726-17.505m-33.878 3.984c-1.696 4.373-2.567 9.217-2.567 14.532 0 6.423 1.191 12.4 3.601 17.911 2.375 5.53 5.82 10.356 10.292 14.445 4.513 4.083 10.048 7.295 16.605 9.618 6.551 2.323 14.038 3.485 22.529 3.485 8.451 0 16.007-1.162 22.599-3.485 6.627-2.323 12.168-5.535 16.675-9.618 4.501-4.089 7.922-8.915 10.24-14.445 2.317-5.511 3.473-11.488 3.473-17.911 0-5.181-.918-9.99-2.747-14.428a42.498 42.498 0 0 0-7.499-11.97h21.519V73.335h-46.464V50.411h-34.999c-1.522 0-2.567.581-3.189 1.737-.604 1.167-.232 2.503 1.127 3.995 1.922 2.324 3.119 4.542 3.601 6.656.476 2.109.714 4.931.714 8.486v2.05H544.54v22.512h21.472c-3.125 3.555-5.564 7.504-7.26 11.866M722.179 56.144H687.18c-1.504 0-2.561.575-3.177 1.742-.621 1.156-.25 2.481 1.15 3.996 1.899 2.312 3.177 4.531 3.88 6.639.65 2.108 1.034 4.948 1.034 8.491v109.29h32.112V126.56h23.314v-23.133h-23.314V56.144ZM882.03 111.612c-6.563 3.555-17.61 5.332-33.147 5.332-15.582 0-26.612-1.777-33.175-5.332-6.551-3.548-9.833-8.532-9.833-14.944 0-6.272 3.282-11.285 9.833-15.037 6.563-3.757 17.593-5.639 33.175-5.639 15.537 0 26.584 1.882 33.147 5.639 6.54 3.752 9.81 8.765 9.81 15.037 0 6.412-3.27 11.396-9.81 14.944m23.633-45.749c-6.221-3.752-14.027-6.639-23.418-8.701-9.415-2.038-20.537-3.055-33.362-3.055-12.858 0-23.952 1.017-33.39 3.055-9.391 2.062-17.174 4.949-23.331 8.701-6.127 3.763-10.715 8.264-13.712 13.503-2.997 5.268-4.473 11.03-4.473 17.302 0 6.139 1.476 11.802 4.473 17 2.997 5.175 7.585 9.636 13.712 13.394 6.157 3.752 13.94 6.696 23.331 8.805 9.438 2.12 20.532 3.165 33.39 3.165 12.825 0 23.947-1.045 33.362-3.165 9.391-2.109 17.197-5.053 23.418-8.805 6.197-3.758 10.843-8.219 13.817-13.394 2.991-5.198 4.501-10.861 4.501-17 0-6.272-1.51-12.034-4.501-17.302-2.974-5.239-7.62-9.74-13.817-13.503M926.65 222.141H817.768c-3.404 0-5.832-.494-7.266-1.435-1.441-.952-2.155-3.287-2.155-6.952v-30.306h-34.79c-1.498 0-2.521.609-3.067 1.852-.551 1.214-.22 2.585 1.011 4.083 1.516 1.778 2.602 3.497 3.287 5.117.686 1.638 1.011 3.485 1.011 5.512v19.254c0 5.186.691 9.461 2.143 12.789 1.452 3.334 3.624 6.011 6.563 7.986 2.922 1.98 6.697 3.34 11.262 4.106 4.565.755 9.914 1.115 16.053 1.115h114.83v-23.121ZM946.299 148.86H751.243v22.297h195.056V148.86ZM993.364 108.85c.702-2.672 1.8-5.059 3.386-7.173a17.09 17.09 0 0 1 5.93-5.012c2.398-1.231 5.204-1.835 8.497-1.835 3.27 0 6.098.604 8.491 1.835 2.37 1.231 4.362 2.904 5.942 5.012a20.086 20.086 0 0 1 3.363 7.173 33.303 33.303 0 0 1 1.028 8.294c0 2.718-.349 5.39-1.028 7.974a19.217 19.217 0 0 1-3.363 6.953c-1.58 2.056-3.572 3.699-5.942 4.919-2.393 1.22-5.221 1.847-8.491 1.847-3.293 0-6.099-.627-8.497-1.847-2.382-1.22-4.356-2.863-5.93-4.919-1.586-2.045-2.684-4.368-3.386-6.953a31.022 31.022 0 0 1-1.028-7.974c0-2.887.342-5.634 1.028-8.294m-27.931-4.193c-1.289 3.827-1.952 7.899-1.952 12.278 0 6.54 1.057 12.539 3.177 17.993 2.115 5.471 5.187 10.106 9.224 13.933 4.007 3.822 8.985 6.784 14.926 8.898 5.942 2.114 12.743 3.177 20.369 3.177 7.637 0 14.433-1.063 20.351-3.177 5.942-2.114 10.937-5.076 14.956-8.898 4.007-3.827 7.097-8.462 9.217-13.933 2.085-5.454 3.165-11.453 3.165-17.993 0-4.379-.679-8.451-2.044-12.278-1.394-3.828-3.212-7.307-5.529-10.437h13.718V71.696h-36.433V49.794h-33.78c-1.492 0-2.596.616-3.258 1.836-.709 1.248-.378 2.671 1.016 4.315 1.905 2.189 3.061 4.327 3.497 6.441.406 2.108.581 5.012.581 8.706v.604h-41.94V94.22h16.164c-2.324 3.13-4.13 6.609-5.425 10.437M1070.524 57.375c-1.354 0-2.3.499-2.852 1.533-.546 1.028-.227 2.428 1.022 4.205 1.214 1.766 2.196 3.491 2.974 5.21.738 1.702 1.103 4.408 1.103 8.079v80.842h29.284V119.19h13.713v43.6h29.278V56.143h-29.278v38.879h-13.713V57.375h-31.531ZM1031.955 200.746c1.429-2.52 3.775-4.617 7.051-6.243 3.27-1.638 7.533-2.881 12.801-3.799 5.256-.894 11.686-1.301 19.358-1.301 7.614 0 14.061.407 19.335 1.301 5.221.918 9.461 2.161 12.685 3.799 3.206 1.626 5.511 3.723 6.934 6.243 1.464 2.527 2.184 5.413 2.184 8.695 0 3.136-.72 5.976-2.184 8.497-1.423 2.526-3.728 4.629-6.934 6.331-3.224 1.707-7.464 3.014-12.685 3.914-5.274.877-11.721 1.319-19.335 1.319-7.672 0-14.102-.442-19.358-1.319-5.268-.9-9.531-2.207-12.801-3.914-3.276-1.702-5.622-3.805-7.051-6.331-1.44-2.521-2.155-5.361-2.155-8.497 0-3.282.715-6.168 2.155-8.695m-34.697 8.695c0 6.424 1.562 12.284 4.71 17.598 3.142 5.303 7.841 9.874 14.108 13.608 6.307 3.752 13.974 6.656 23.116 8.707 9.165 2.044 19.823 3.089 31.973 3.089 11.848 0 22.378-1.045 31.596-3.089 9.228-2.051 16.912-4.955 23.139-8.707 6.197-3.734 10.959-8.305 14.206-13.608 3.293-5.314 4.925-11.174 4.925-17.598 0-13.219-6.354-23.703-19.05-31.433-12.673-7.684-30.968-11.541-54.816-11.541-24.434 0-42.881 3.857-55.304 11.541-12.377 7.73-18.603 18.214-18.603 31.433" style="fill-opacity:1;fill-rule:nonzero;stroke:none;fill:#0046ff"/></svg>